:SAMPLES-PER-SECOND 30
:FULLY-SPECIFIED
:DEGREES
287
root  -7.50337811 37.7082224 6.532466318 137.6210022 -74.78900146 -131.197998
lowerback  14.18560028 3.787410021 -8.454000473
upperback  3.438940048 2.48555994 -9.828559875
thorax  -4.249609947 0.9596120119 -6.18764019
lowerneck  -4.673069954 14.84799957 -0.4973919988
upperneck  28.93510056 17.03450012 10.32139969
head  8.804599762 8.410369873 4.859449863
lclavicle  0 -9.442270133e-015 7.951389973e-016
lhumerus  -37.76499939 29.1821003 54.54600143
lradius  -5.938394113e-032 -3.48083306e-031 80.31839752
lwrist  -1.765562519e-031 1.412450015e-030 95.07810211
lhand  -1.496451383e-031 -27.76390076 20.11240005
lfingers  90 7.125020027 -90
lthumb  89.89689403 5.08795885 91.16245106
rclavicle  0 -9.442270133e-015 7.951389973e-016
rhumerus  -37.92819977 14.50380039 -93.75579834
rradius  8.710076393e-032 3.422015448e-031 75.71970367
rwrist  7.062250077e-031 5.296687558e-031 -55.21630096
rhand  -7.920061211e-032 -33.2840004 9.303460121
rfingers  -90 -7.125020027 -90
rthumb  -92.93752616 -24.25625642 -97.11982154
rfemur  -13.2215004 21.99270058 5.986810207
rtibia  -0 0 40.90639877
rfoot  -0 -6.324029922 12.97270012
rtoes  5.373923086 19.29304026 -105.8922705
lfemur  -33.73419952 -7.075570107 21.27700043
ltibia  -0 0 50.21429825
lfoot  -0 0.5997639894 12.00619984
ltoes  -4.250644065 -19.5611806 -102.515957
288
root  -7.528422198 37.75066766 6.751288767 134.2340088 -75.53600311 -127.5759888
lowerback  15.00879955 3.300390005 -9.025659561
upperback  3.857140064 1.658839941 -9.777009964
thorax  -4.304289818 0.5445590019 -5.687210083
lowerneck  -5.031909943 15.29559994 -0.6803939939
upperneck  29.38010025 17.6189003 10.41059971
head  8.961009979 8.655520439 5.008150101
lclavicle  0 -9.442270133e-015 7.951389973e-016
lhumerus  -33.73929977 28.84070015 55.99399948
lradius  -5.158496269e-032 -3.493242505e-031 81.59980011
lwrist  0 7.062250077e-031 95.14810181
lhand  -1.496451383e-031 -27.76390076 20.11240005
lfingers  90 7.125020027 -90
lthumb  89.89689403 5.08795885 91.16245106
rclavicle  0 -9.442270133e-015 7.951389973e-016
rhumerus  -38.51279831 14.64700031 -93.31240082
rradius  8.934577366e-032 3.416222667e-031 75.34349823
rwrist  1.059337512e-030 5.296687558e-031 -56.51710129
rhand  -7.920061211e-032 -33.2840004 9.303460121
rfingers  -90 -7.125020027 -90
rthumb  -92.93752616 -24.25625642 -97.11982154
rfemur  -13.99730015 21.57719994 5.495880127
rtibia  -0 0 41.85900116
rfoot  -0 -3.300080061 13.11800003
rtoes  5.373923086 19.29304026 -105.8922705
lfemur  -36.14820099 -6.388470173 20.85210037
ltibia  -0 0 51.97079849
lfoot  -0 1.989380002 10.58160019
ltoes  -4.250644065 -19.5611806 -102.515957
289
root  -7.552800216 37.76755446 6.977222473 128.9729919 -75.77200317 -122.1350098
lowerback  15.88309956 2.87906003 -9.061940193
upperback  4.352799892 1.037240028 -9.509119987
thorax  -4.268640041 0.2348549962 -5.272739887
lowerneck  -5.491290092 15.6171999 -1.009770036
upperneck  29.7038002 18.03770065 10.63519955
head  9.069339752 8.832719803 5.209740162
lclavicle  0 -9.442270133e-015 7.951389973e-016
lhumerus  -29.23880005 28.38699913 58.06340027
lradius  -3.694032858e-032 -3.511749599e-031 83.99510193
lwrist  -3.531125038e-031 1.412450015e-030 93.75430298
lhand  -1.496451383e-031 -27.76390076 20.11240005
lfingers  90 7.125020027 -90
lthumb  89.89689403 5.08795885 91.16245106
rclavicle  0 -9.442270133e-015 7.951389973e-016
rhumerus  -39.06159973 14.71090031 -92.64399719
rradius  9.094034658e-032 3.412012511e-031 75.07589722
rwrist  7.062250077e-031 3.531125038e-031 -57.84460068
rhand  -7.920061211e-032 -33.2840004 9.303460121
rfingers  -90 -7.125020027 -90
rthumb  -92.93752616 -24.25625642 -97.11982154
rfemur  -14.61260033 21.39529991 5.675439835
rtibia  -0 0 42.79880142
rfoot  -0 -0.8071230054 12.57289982
rtoes  5.373923086 19.29304026 -105.8922705
lfemur  -38.41009903 -5.261300087 20.91640091
ltibia  -0 0 53.61809921
lfoot  -0 3.068690062 8.569009781
ltoes  -4.250644065 -19.5611806 -102.515957
290
root  -7.580489061 37.76311199 7.19217766 123.1820068 -75.7440033 -116.0960083
lowerback  16.62220001 2.675940037 -9.020219803
upperback  4.869369984 0.7573630214 -9.098090172
thorax  -4.119559765 0.09324459732 -4.800310135
lowerneck  -5.736390114 15.7276001 -1.157520056
upperneck  29.73139954 18.20100021 10.67840004
head  9.090929985 8.902009964 5.276150227
lclavicle  0 -9.442270133e-015 7.951389973e-016
lhumerus  -23.77079964 27.10330009 60.95610046
lradius  -2.098613983e-032 -3.524883293e-031 86.59279633
lwrist  -3.531125038e-031 7.062250077e-031 89.91809845
lhand  -1.496451383e-031 -27.76390076 20.11240005
lfingers  90 7.125020027 -90
lthumb  89.89689403 5.08795885 91.16245106
rclavicle  0 -9.442270133e-015 7.951389973e-016
rhumerus  -39.70199966 14.51410007 -91.67389679
rradius  9.168033776e-032 3.410031613e-031 74.95159912
rwrist  7.062250077e-031 7.062250077e-031 -59.30770111
rhand  -7.920061211e-032 -33.2840004 9.303460121
rfingers  -90 -7.125020027 -90
rthumb  -92.93752616 -24.25625642 -97.11982154
rfemur  -15.18109989 21.41519928 6.030409813
rtibia  -0 0 43.6875
rfoot  -0 0.5986009836 11.43929958
rtoes  5.373923086 19.29304026 -105.8922705
lfemur  -40.65319824 -3.940540075 21.08819962
ltibia  -0 0 55.00040054
lfoot  4.422142003e-032 3.497349977 5.71310997
ltoes  -4.250644065 -19.5611806 -102.515957
291
root  -7.621910816 37.74511082 7.416333176 118.1459961 -76.03900146 -110.8359985
lowerback  17.34140015 2.691499949 -9.279359818
upperback  5.344419956 0.6861150265 -8.798629761
thorax  -3.997090101 0.04684169963 -4.327459812
lowerneck  -5.673699856 15.67850018 -1.080970049
upperneck  29.50690079 18.16399956 10.53670025
head  9.028079987 8.888429642 5.197500229
lclavicle  0 -9.442270133e-015 7.951389973e-016
lhumerus  -17.68300056 24.41189957 64.02339935
lradius  -6.745563656e-033 -3.530480672e-031 88.90540314
lwrist  -7.062250077e-031 7.062250077e-031 85.2173996
lhand  -1.496451383e-031 -27.76390076 20.11240005
lfingers  90 7.125020027 -90
lthumb  89.89689403 5.08795885 91.16245106
rclavicle  0 -9.442270133e-015 7.951389973e-016
rhumerus  -40.51720047 13.98999977 -90.645401
rradius  9.240147275e-032 3.408084626e-031 74.83039856
rwrist  3.531125038e-031 7.062250077e-031 -60.68659973
rhand  -7.920061211e-032 -33.2840004 9.303460121
rfingers  -90 -7.125020027 -90
rthumb  -92.93752616 -24.25625642 -97.11982154
rfemur  -15.58819962 21.15719986 5.784649849
rtibia  -0 0 44.4980011
rfoot  -0 0.8303599954 10.10680008
rtoes  5.373923086 19.29304026 -105.8922705
lfemur  -42.82400131 -2.873019934 20.56620026
ltibia  -0 0 56.00270081
lfoot  4.420541624e-032 3.139679909 2.223560095
ltoes  -4.250644065 -19.5611806 -102.515957
